name Walk1.mot
datacolumns 19
datarows 17
range 1.31000000 1.32600000
endheader

                time	   L_ground_force_vx	   L_ground_force_vy	   L_ground_force_vz	   L_ground_force_px	   L_ground_force_py	   L_ground_force_pz	   R_ground_force_vx	   R_ground_force_vy	   R_ground_force_vz	   R_ground_force_px	   R_ground_force_py	   R_ground_force_pz	   L_ground_torque_x	   L_ground_torque_y	   L_ground_torque_z	   R_ground_torque_x	   R_ground_torque_y	   R_ground_torque_z	
          1.31000000	          0.00000000	          0.00000000	          0.00000000	          0.00000000	          0.00000000	          0.00000000	         34.72377493	        520.05073817	         36.26876925	         -0.08945938	          0.00000000	         -0.09971819	          0.00000000	          0.00000000	          0.00000000	          0.00000000	          0.29165077	          0.00000000	
          1.31100000	          0.00000000	          0.00000000	          0.00000000	          0.00000000	          0.00000000	          0.00000000	         35.68307268	        522.05615974	         36.44659388	         -0.08944248	          0.00000000	         -0.09972979	          0.00000000	          0.00000000	          0.00000000	          0.00000000	          0.27627542	          0.00000000	
          1.31200000	          0.00000000	          0.00000000	          0.00000000	          0.00000000	          0.00000000	          0.00000000	         36.58313006	        524.09730363	         36.61400522	         -0.08945793	          0.00000000	         -0.09977645	          0.00000000	          0.00000000	          0.00000000	          0.00000000	          0.28988514	          0.00000000	
          1.31300000	          0.00000000	          0.00000000	          0.00000000	          0.00000000	          0.00000000	          0.00000000	         37.41169692	        526.12907921	         36.83271081	         -0.08948945	          0.00000000	         -0.09983947	          0.00000000	          0.00000000	          0.00000000	          0.00000000	          0.32848090	          0.00000000	
          1.31400000	          0.00000000	          0.00000000	          0.00000000	          0.00000000	          0.00000000	          0.00000000	         38.18315967	        528.11777145	         37.15359238	         -0.08951516	          0.00000000	         -0.09987120	          0.00000000	          0.00000000	          0.00000000	          0.00000000	          0.37769026	          0.00000000	
          1.31500000	          0.00000000	          0.00000000	          0.00000000	          0.00000000	          0.00000000	          0.00000000	         38.94482982	        530.07697130	         37.57140476	         -0.08951423	          0.00000000	         -0.09984972	          0.00000000	          0.00000000	          0.00000000	          0.00000000	          0.41781687	          0.00000000	
          1.31600000	          0.00000000	          0.00000000	          0.00000000	          0.00000000	          0.00000000	          0.00000000	         39.75095870	        532.03808791	         38.01798329	         -0.08946855	          0.00000000	         -0.09981202	          0.00000000	          0.00000000	          0.00000000	          0.00000000	          0.43477526	          0.00000000	
          1.31700000	          0.00000000	          0.00000000	          0.00000000	          0.00000000	          0.00000000	          0.00000000	         40.61701301	        534.01141952	         38.42598309	         -0.08937268	          0.00000000	         -0.09981821	          0.00000000	          0.00000000	          0.00000000	          0.00000000	          0.43053037	          0.00000000	
          1.31800000	          0.00000000	          0.00000000	          0.00000000	          0.00000000	          0.00000000	          0.00000000	         41.52121171	        535.98621954	         38.78343604	         -0.08924185	          0.00000000	         -0.09989160	          0.00000000	          0.00000000	          0.00000000	          0.00000000	          0.41634612	          0.00000000	
          1.31900000	          0.00000000	          0.00000000	          0.00000000	          0.00000000	          0.00000000	          0.00000000	         42.44502058	        537.95573433	         39.10321618	         -0.08909854	          0.00000000	         -0.10000848	          0.00000000	          0.00000000	          0.00000000	          0.00000000	          0.40286908	          0.00000000	
          1.32000000	          0.00000000	          0.00000000	          0.00000000	          0.00000000	          0.00000000	          0.00000000	         43.37263187	        539.93553036	         39.37635456	         -0.08896366	          0.00000000	         -0.10013498	          0.00000000	          0.00000000	          0.00000000	          0.00000000	          0.40245585	          0.00000000	
          1.32100000	          0.00000000	          0.00000000	          0.00000000	          0.00000000	          0.00000000	          0.00000000	         44.26271715	        541.94070144	         39.59716555	         -0.08886386	          0.00000000	         -0.10024742	          0.00000000	          0.00000000	          0.00000000	          0.00000000	          0.42806194	          0.00000000	
          1.32200000	          0.00000000	          0.00000000	          0.00000000	          0.00000000	          0.00000000	          0.00000000	         45.07480245	        543.95259046	         39.80348564	         -0.08881892	          0.00000000	         -0.10032492	          0.00000000	          0.00000000	          0.00000000	          0.00000000	          0.48006036	          0.00000000	
          1.32300000	          0.00000000	          0.00000000	          0.00000000	          0.00000000	          0.00000000	          0.00000000	         45.81624022	        545.94414153	         40.05368005	         -0.08882503	          0.00000000	         -0.10033223	          0.00000000	          0.00000000	          0.00000000	          0.00000000	          0.53745810	          0.00000000	
          1.32400000	          0.00000000	          0.00000000	          0.00000000	          0.00000000	          0.00000000	          0.00000000	         46.53525084	        547.91962179	         40.37793213	         -0.08886827	          0.00000000	         -0.10021575	          0.00000000	          0.00000000	          0.00000000	          0.00000000	          0.56881221	          0.00000000	
          1.32500000	          0.00000000	          0.00000000	          0.00000000	          0.00000000	          0.00000000	          0.00000000	         47.28609831	        549.88719263	         40.75971296	         -0.08892676	          0.00000000	         -0.09996215	          0.00000000	          0.00000000	          0.00000000	          0.00000000	          0.55437410	          0.00000000	
          1.32600000	          0.00000000	          0.00000000	          0.00000000	          0.00000000	          0.00000000	          0.00000000	         48.10539538	        551.82264244	         41.14239643	         -0.08895029	          0.00000000	         -0.09966508	          0.00000000	          0.00000000	          0.00000000	          0.00000000	          0.49895813	          0.00000000	
